<svg xmlns="http://www.w3.org/2000/svg" xmlns:xlink="http://www.w3.org/1999/xlink" width="512" zoomAndPan="magnify" viewBox="0 0 384 383.999986" height="512" preserveAspectRatio="xMidYMid meet" version="1.0"><defs><clipPath id="54ce788235"><path d="M 75 0 L 309 0 C 350.421875 0 384 33.578125 384 75 L 384 309 C 384 350.421875 350.421875 384 309 384 L 75 384 C 33.578125 384 0 350.421875 0 309 L 0 75 C 0 33.578125 33.578125 0 75 0 Z M 75 0 " clip-rule="nonzero"/></clipPath><clipPath id="32d0d1445d"><path d="M 0 0 L 384 0 L 384 384 L 0 384 Z M 0 0 " clip-rule="nonzero"/></clipPath><clipPath id="c934080909"><path d="M 75 0 L 309 0 C 350.421875 0 384 33.578125 384 75 L 384 309 C 384 350.421875 350.421875 384 309 384 L 75 384 C 33.578125 384 0 350.421875 0 309 L 0 75 C 0 33.578125 33.578125 0 75 0 Z M 75 0 " clip-rule="nonzero"/></clipPath><clipPath id="92f0f754f5"><rect x="0" width="384" y="0" height="384"/></clipPath></defs><g clip-path="url(#54ce788235)"><g><g clip-path="url(#92f0f754f5)"><g clip-path="url(#32d0d1445d)"><g clip-path="url(#c934080909)"><rect x="-84.48" width="552.96" fill="#085e34" height="552.959979" y="-84.479997" fill-opacity="1"/></g></g></g></g></g><path fill="#ffffff" d="M 167.175781 184.066406 L 65.839844 285.398438 C 63.367188 287.875 60.125 289.109375 56.886719 289.109375 C 53.644531 289.109375 50.402344 287.875 47.929688 285.398438 C 42.980469 280.453125 42.980469 272.4375 47.929688 267.488281 L 140.308594 175.109375 L 47.929688 82.730469 C 42.980469 77.78125 42.980469 69.765625 47.929688 64.816406 C 52.878906 59.867188 60.894531 59.867188 65.839844 64.816406 L 167.175781 166.152344 C 172.125 171.101562 172.125 179.117188 167.175781 184.066406 Z M 327.113281 297.554688 L 158.222656 297.554688 C 151.226562 297.554688 145.554688 303.230469 145.554688 310.222656 C 145.554688 317.214844 151.226562 322.890625 158.222656 322.890625 L 327.113281 322.890625 C 334.105469 322.890625 339.78125 317.214844 339.78125 310.222656 C 339.78125 303.230469 334.105469 297.554688 327.113281 297.554688 Z M 327.113281 297.554688 " fill-opacity="1" fill-rule="nonzero"/></svg>